<svg width="106" height="23" viewBox="0 0 106 23" fill="none" xmlns="http://www.w3.org/2000/svg">
<path d="M37.3283 19.0285V14.6145C37.5156 14.7249 37.7104 14.8321 37.9126 14.9363C38.1148 15.0406 38.3201 15.134 38.5283 15.2167C38.7367 15.2996 38.9479 15.3655 39.1622 15.4144C39.3765 15.4636 39.5924 15.4882 39.8098 15.4882C40.492 15.4882 41.1337 15.3686 41.7344 15.1293C42.3351 14.8902 42.8604 14.5455 43.3102 14.0948C43.7599 13.6443 44.1146 13.0956 44.3743 12.4487C44.634 11.8021 44.7638 11.0741 44.7638 10.2648C44.7638 9.48614 44.634 8.7765 44.3743 8.13591C44.1146 7.49532 43.7599 6.94811 43.3102 6.49455C42.8604 6.04072 42.3351 5.68995 41.7344 5.44146C41.1337 5.19323 40.492 5.06924 39.8098 5.06924C39.4958 5.06924 39.1849 5.109 38.8771 5.18878C38.5692 5.2683 38.2717 5.37711 37.985 5.51522C37.6983 5.65307 37.4221 5.81708 37.1563 6.00698C36.8907 6.19714 36.6462 6.3996 36.4229 6.61409L35.4357 5.42786H34.8378V19.0285H37.3283ZM42.2823 10.2648C42.2823 10.6632 42.2174 11.0281 42.0876 11.359C41.9577 11.6901 41.781 11.9721 41.5577 12.2052C41.3343 12.438 41.0716 12.619 40.7699 12.7477C40.468 12.8764 40.1481 12.9407 39.8098 12.9407C39.4719 12.9407 39.1532 12.8764 38.8544 12.7477C38.5556 12.619 38.2944 12.438 38.071 12.2052C37.8477 11.9721 37.671 11.6901 37.5411 11.359C37.4113 11.0281 37.3466 10.6632 37.3466 10.2648C37.3466 9.8479 37.4113 9.47385 37.5411 9.14296C37.671 8.81181 37.8477 8.53141 38.071 8.30149C38.2944 8.07156 38.5556 7.89526 38.8544 7.77259C39.1532 7.65017 39.4719 7.5887 39.8098 7.5887C40.1478 7.5887 40.468 7.65017 40.7699 7.77259C41.0716 7.89526 41.3343 8.07156 41.5577 8.30149C41.781 8.53141 41.9577 8.81181 42.0876 9.14296C42.2174 9.47385 42.2823 9.8479 42.2823 10.2648Z" fill="white"/>
<path d="M54.9482 10.2649C54.9482 9.48014 54.8183 8.76736 54.5587 8.12677C54.299 7.48618 53.9458 6.93741 53.4991 6.4807C53.0522 6.024 52.5285 5.6714 51.9278 5.42317C51.327 5.17494 50.6825 5.05069 49.9942 5.05069C49.312 5.05069 48.6706 5.18252 48.0699 5.44619C47.4692 5.70985 46.9439 6.07291 46.4939 6.53589C46.0441 6.99888 45.6894 7.54896 45.43 8.18667C45.1703 8.82412 45.0405 9.51676 45.0405 10.2649C45.0405 11.0004 45.1703 11.6855 45.43 12.32C45.6894 12.9546 46.0441 13.5034 46.4939 13.9661C46.9439 14.4291 47.4692 14.7937 48.0699 15.0605C48.6706 15.3271 49.312 15.4605 49.9942 15.4605C50.6825 15.4605 51.327 15.3271 51.9278 15.0605C52.5285 14.7937 53.0522 14.4291 53.4991 13.9661C53.9458 13.5034 54.299 12.9546 54.5587 12.32C54.8183 11.6855 54.9482 11.0004 54.9482 10.2649ZM52.4576 10.2649C52.4576 10.6632 52.3927 11.0281 52.2629 11.359C52.1331 11.6902 51.9566 11.9721 51.733 12.2052C51.5097 12.438 51.2485 12.619 50.9496 12.7477C50.6508 12.8764 50.3324 12.9407 49.9942 12.9407C49.6562 12.9407 49.3378 12.8719 49.0387 12.7338C48.7399 12.596 48.4802 12.4074 48.26 12.1683C48.0395 11.9292 47.8661 11.6473 47.7391 11.3224C47.6124 10.9975 47.549 10.6449 47.549 10.2649C47.549 9.86021 47.6124 9.49401 47.7391 9.166C47.8661 8.83799 48.0395 8.55601 48.26 8.31981C48.4802 8.08387 48.7399 7.90313 49.0387 7.77731C49.3378 7.65176 49.6562 7.58872 49.9942 7.58872C50.3324 7.58872 50.6508 7.65176 50.9496 7.77731C51.2485 7.90287 51.5097 8.08387 51.733 8.31981C51.9566 8.55601 52.1331 8.83799 52.2629 9.166C52.3927 9.49401 52.4576 9.86021 52.4576 10.2649Z" fill="white"/>
<path d="M62.66 10.2649C62.66 10.608 62.5954 10.9408 62.4655 11.2625C62.3357 11.5845 62.159 11.8696 61.9356 12.1178C61.7123 12.3661 61.4511 12.5654 61.1523 12.7155C60.8535 12.8657 60.5348 12.9407 60.1968 12.9407C59.8586 12.9407 59.5402 12.878 59.2414 12.7524C58.9426 12.6266 58.6829 12.4474 58.4626 12.2144C58.2421 11.9813 58.0685 11.7009 57.9418 11.3729C57.815 11.0449 57.7517 10.6755 57.7517 10.2649C57.7517 9.83562 57.815 9.45399 57.9418 9.11996C58.0685 8.78593 58.2421 8.50527 58.4626 8.27849C58.6829 8.0517 58.9426 7.88011 59.2414 7.76345C59.5402 7.64705 59.8586 7.58872 60.1968 7.58872C60.5348 7.58872 60.8535 7.66379 61.1523 7.8142C61.4511 7.96434 61.7123 8.16366 61.9356 8.41189C62.159 8.66012 62.3357 8.94523 62.4655 9.26696C62.5954 9.58896 62.66 9.92142 62.66 10.2649ZM65.1505 14.0352V5.44619H64.5529L63.5931 6.6141C63.3635 6.39334 63.1175 6.188 62.8548 5.99784C62.5923 5.80794 62.3161 5.64237 62.0263 5.50138C61.7365 5.36039 61.4374 5.25001 61.1296 5.17023C60.8218 5.09071 60.5108 5.05069 60.1968 5.05069C59.5147 5.05069 58.873 5.18252 58.2723 5.44619C57.6715 5.70985 57.1463 6.07448 56.6965 6.5406C56.2467 7.00646 55.892 7.55812 55.6323 8.19583C55.3727 8.83328 55.2431 9.52304 55.2431 10.2649C55.2428 11.0742 55.3727 11.8005 55.6323 12.4443C55.892 13.088 56.2467 13.6321 56.6965 14.0765C57.1463 14.5209 57.6715 14.8628 58.2723 15.1018C58.873 15.3409 59.5147 15.4605 60.1968 15.4605C60.4021 15.4605 60.6239 15.4482 60.8625 15.4238C61.101 15.3993 61.3303 15.3548 61.5508 15.2904C61.771 15.2261 61.972 15.1432 62.1531 15.0422C62.3342 14.941 62.473 14.8107 62.5696 14.6512C62.5031 14.9025 62.414 15.1416 62.3025 15.3686C62.1907 15.5954 62.0413 15.7961 61.8542 15.9708C61.667 16.1455 61.4374 16.2836 61.1659 16.3846C60.8942 16.4858 60.5652 16.5363 60.1788 16.5363L58.9562 16.518V19.0286L60.1968 19.0469C60.879 19.0469 61.5206 18.915 62.1214 18.6514C62.7221 18.388 63.2474 18.0291 63.6971 17.5755C64.1469 17.122 64.5016 16.5915 64.7613 15.9846C65.021 15.3778 65.1505 14.7278 65.1505 14.0352Z" fill="white"/>
<path d="M73.6054 14.1269L74.4204 15.2766H75.018V5.42786H72.5458V10.8717C72.5458 11.1354 72.4974 11.3912 72.4008 11.6397C72.3042 11.8879 72.1715 12.1102 72.0023 12.3064C71.8333 12.5026 71.6355 12.6603 71.4093 12.7799C71.1829 12.8994 70.9428 12.9593 70.6893 12.9593C70.4296 12.9593 70.1864 12.9133 69.9603 12.8212C69.7338 12.7294 69.536 12.5944 69.367 12.4165C69.198 12.2389 69.0636 12.0197 68.9639 11.7592C68.8644 11.4987 68.8145 11.2028 68.8145 10.8717V5.42786H66.3513V10.8717C66.3513 11.5766 66.4643 12.2128 66.6908 12.7799C66.9172 13.3469 67.2281 13.8282 67.6236 14.2237C68.019 14.619 68.4793 14.924 69.0048 15.1387C69.5301 15.3532 70.0914 15.4604 70.6893 15.4604C70.9608 15.4604 71.2279 15.4251 71.4907 15.3548C71.7532 15.2841 72.0085 15.1892 72.256 15.0697C72.5036 14.9501 72.7403 14.8091 72.9668 14.6467C73.1932 14.4843 73.406 14.3111 73.6054 14.1269Z" fill="white"/>
<path d="M79.3883 14.3386C79.3883 14.1241 79.3492 13.9216 79.2706 13.7317C79.1923 13.5416 79.0836 13.376 78.9447 13.235C78.8059 13.094 78.6428 12.9823 78.4555 12.8994C78.2685 12.8168 78.066 12.7752 77.8489 12.7752C77.6374 12.7752 77.4367 12.8168 77.2466 12.8994C77.0565 12.9823 76.8903 13.094 76.7484 13.235C76.6064 13.376 76.4949 13.5416 76.4132 13.7317C76.3318 13.9216 76.2911 14.1241 76.2911 14.3386C76.2911 14.5594 76.3318 14.7663 76.4132 14.9593C76.4949 15.1523 76.6064 15.3195 76.7484 15.4605C76.8903 15.6015 77.0565 15.7134 77.2466 15.7961C77.4367 15.879 77.6374 15.9203 77.8489 15.9203C78.066 15.9203 78.2685 15.879 78.4555 15.7961C78.6428 15.7134 78.8059 15.6015 78.9447 15.4605C79.0836 15.3195 79.1923 15.1523 79.2706 14.9593C79.3492 14.7663 79.3883 14.5594 79.3883 14.3386Z" fill="white"/>
<path d="M83.1609 15.2766V1.51031H80.6704V15.2766H83.1609Z" fill="white"/>
<path d="M87.4044 2.75172C87.4044 2.52494 87.3606 2.30888 87.2731 2.10355C87.1855 1.89821 87.0662 1.72034 86.9152 1.5702C86.7643 1.4198 86.5878 1.30026 86.3856 1.21159C86.1834 1.12265 85.9675 1.07819 85.738 1.07819C85.5085 1.07819 85.2929 1.12265 85.0904 1.21159C84.8882 1.30026 84.7132 1.4198 84.5651 1.5702C84.4173 1.72008 84.2995 1.89795 84.2119 2.10355C84.1244 2.30888 84.0806 2.52494 84.0806 2.75172C84.0806 2.98478 84.1244 3.20241 84.2119 3.4046C84.2995 3.60706 84.4173 3.78336 84.5651 3.9335C84.7132 4.08364 84.8882 4.20318 85.0904 4.29212C85.2929 4.38105 85.5085 4.42552 85.738 4.42552C85.9675 4.42552 86.1834 4.38105 86.3856 4.29212C86.5878 4.20318 86.7643 4.08364 86.9152 3.9335C87.0662 3.78336 87.1855 3.60706 87.2731 3.4046C87.3606 3.20241 87.4044 2.98478 87.4044 2.75172ZM86.9786 15.2766V5.42786H84.4881V15.2766H86.9786Z" fill="white"/>
<path d="M91.0591 15.2766H93.5406L97.2357 5.42786H94.41L92.3 11.5706L90.1806 5.42786H87.3643L91.0591 15.2766Z" fill="white"/>
<path d="M101.198 12.8672L105.835 7.19348C105.606 6.86234 105.34 6.56336 105.038 6.29682C104.736 6.03001 104.412 5.8048 104.065 5.62092C103.717 5.43703 103.351 5.29604 102.964 5.19796C102.578 5.09987 102.182 5.05069 101.778 5.05069C101.096 5.05069 100.454 5.17651 99.8534 5.42788C99.2526 5.67925 98.7274 6.03158 98.2776 6.48541C97.8278 6.93898 97.4731 7.48775 97.2135 8.13148C96.9538 8.77521 96.8242 9.48616 96.8242 10.2649C96.824 11.025 96.9538 11.7223 97.2135 12.3569C97.4731 12.9915 97.8278 13.5384 98.2776 13.9983C98.7274 14.4581 99.2526 14.8167 99.8534 15.0744C100.454 15.3318 101.096 15.4605 101.778 15.4605C102.182 15.4605 102.576 15.4128 102.96 15.3179C103.343 15.2229 103.708 15.0835 104.056 14.8996C104.403 14.7155 104.726 14.4919 105.024 14.2282C105.324 13.9645 105.588 13.6674 105.817 13.3362L104.006 11.488C103.909 11.7085 103.784 11.9094 103.63 12.0901C103.476 12.2711 103.301 12.4244 103.105 12.5499C102.909 12.6758 102.699 12.7723 102.475 12.8398C102.252 12.907 102.02 12.9407 101.778 12.9407C101.681 12.9407 101.585 12.9363 101.488 12.9271C101.392 12.9177 101.295 12.8978 101.198 12.8672ZM102.466 7.68995L99.5862 11.5706C99.5381 11.4848 99.4987 11.3867 99.4685 11.2764C99.4384 11.166 99.4126 11.0511 99.3915 10.9316C99.3704 10.8121 99.3554 10.6938 99.3464 10.5774C99.3371 10.461 99.3328 10.3567 99.3328 10.2649C99.3328 9.85419 99.3961 9.48459 99.5229 9.15684C99.6496 8.82883 99.8232 8.54816 100.044 8.31537C100.264 8.0823 100.524 7.90313 100.822 7.77731C101.121 7.65176 101.44 7.58872 101.778 7.58872C101.899 7.58872 102.015 7.595 102.126 7.60729C102.238 7.61959 102.352 7.64705 102.466 7.68995Z" fill="white"/>
<path d="M0.658085 16.8008H23.4087C23.5554 16.8008 23.696 16.7416 23.7997 16.6363C23.9035 16.531 23.9617 16.3882 23.9617 16.2393V0.72998C23.9617 0.581055 23.9035 0.43823 23.7997 0.332924C23.696 0.227617 23.5554 0.168457 23.4087 0.168457H0.658085C0.511419 0.168457 0.37076 0.227617 0.267051 0.332924C0.163342 0.43823 0.10508 0.581055 0.10508 0.72998V16.2393C0.10508 16.3882 0.163342 16.531 0.267051 16.6363C0.37076 16.7416 0.511419 16.8008 0.658085 16.8008ZM9.82138 5.46924C9.82154 5.36852 9.84838 5.2697 9.89909 5.18313C9.94979 5.09657 10.0225 5.02544 10.1096 4.97721C10.1967 4.92898 10.2949 4.90543 10.394 4.909C10.4932 4.91258 10.5895 4.94317 10.673 4.99756L15.2408 8.01855C15.3173 8.0697 15.38 8.13931 15.4234 8.22115C15.4668 8.30298 15.4895 8.39448 15.4895 8.48743C15.4895 8.58038 15.4668 8.67187 15.4234 8.75371C15.38 8.83554 15.3173 8.90515 15.2408 8.9563L10.6896 11.9773C10.5952 12.0369 10.4854 12.0662 10.3744 12.0615C10.2277 12.0615 10.0871 12.0024 9.98335 11.8971C9.87964 11.7918 9.82138 11.6489 9.82138 11.5V5.46924ZM5.04895 20.8606C5.04895 21.0095 4.99068 21.1523 4.88697 21.2577C4.78326 21.363 4.64261 21.4221 4.49594 21.4221H0.624904C0.478238 21.4221 0.33758 21.363 0.233871 21.2577C0.130162 21.1523 0.0718994 21.0095 0.0718994 20.8606C0.0718994 20.7117 0.130162 20.5688 0.233871 20.4635C0.33758 20.3582 0.478238 20.2991 0.624904 20.2991H4.49594C4.64261 20.2991 4.78326 20.3582 4.88697 20.4635C4.99068 20.5688 5.04895 20.7117 5.04895 20.8606ZM23.9672 20.8606C23.9672 21.0095 23.909 21.1523 23.8053 21.2577C23.7016 21.363 23.5609 21.4221 23.4142 21.4221H9.63336C9.50052 21.8745 9.21176 22.2633 8.81987 22.5172C8.42797 22.7712 7.95914 22.8735 7.49909 22.8053C7.03905 22.7372 6.61853 22.5032 6.31444 22.1461C6.01035 21.789 5.843 21.3327 5.843 20.8606C5.843 20.3885 6.01035 19.9322 6.31444 19.5751C6.61853 19.218 7.03905 18.984 7.49909 18.9159C7.95914 18.8477 8.42797 18.95 8.81987 19.204C9.21176 19.4579 9.50052 19.8467 9.63336 20.2991H23.4142C23.5609 20.2991 23.7016 20.3582 23.8053 20.4635C23.909 20.5688 23.9672 20.7117 23.9672 20.8606ZM13.9302 8.50708L10.9274 10.4668V6.50244L13.9302 8.50708Z" fill="white"/>
<path d="M96.0321 19.1223C96.0321 19.3876 95.9875 19.6298 95.8983 19.8488C95.8092 20.0678 95.6878 20.2562 95.5344 20.4142C95.3809 20.57 95.2005 20.6911 94.9931 20.7774C94.7878 20.8637 94.567 20.9069 94.3306 20.9069C94.0962 20.9069 93.8754 20.8627 93.668 20.7742C93.4627 20.6858 93.2823 20.5626 93.1267 20.4047C92.9733 20.2468 92.852 20.0594 92.7628 19.8425C92.6736 19.6235 92.629 19.3834 92.629 19.1223V16.1154H93.4813V17.6946C93.527 17.6357 93.5819 17.583 93.6462 17.5367C93.7126 17.4904 93.7831 17.4525 93.8577 17.423C93.9345 17.3935 94.0133 17.3714 94.0941 17.3567C94.175 17.3398 94.2538 17.3314 94.3306 17.3314C94.567 17.3314 94.7878 17.3767 94.9931 17.4672C95.2005 17.5557 95.3809 17.6799 95.5344 17.8399C95.6878 18 95.8092 18.1895 95.8983 18.4085C95.9875 18.6254 96.0321 18.8633 96.0321 19.1223ZM95.1767 19.1223C95.1767 18.9918 95.1538 18.8707 95.1082 18.7591C95.0647 18.6454 95.0045 18.5475 94.9278 18.4653C94.8511 18.3832 94.7609 18.319 94.6572 18.2727C94.5556 18.2263 94.4467 18.2032 94.3306 18.2032C94.2144 18.2032 94.1045 18.2295 94.0008 18.2821C93.8992 18.3327 93.81 18.4011 93.7333 18.4874C93.6566 18.5717 93.5964 18.6696 93.5529 18.7812C93.5093 18.8907 93.4876 19.0044 93.4876 19.1223C93.4876 19.2529 93.5093 19.3739 93.5529 19.4855C93.5964 19.5972 93.6566 19.694 93.7333 19.7761C93.81 19.8583 93.8992 19.9235 94.0008 19.972C94.1045 20.0183 94.2144 20.0415 94.3306 20.0415C94.4467 20.0415 94.5556 20.0183 94.6572 19.972C94.7609 19.9235 94.8511 19.8583 94.9278 19.7761C95.0045 19.694 95.0647 19.5972 95.1082 19.4855C95.1538 19.3739 95.1767 19.2529 95.1767 19.1223Z" fill="#D70070"/>
<path d="M97.7026 20.0162C97.7358 20.0267 97.769 20.0341 97.8022 20.0383C97.8354 20.0404 97.8685 20.0415 97.9017 20.0415C97.9847 20.0415 98.0645 20.0299 98.1412 20.0067C98.218 19.9836 98.2895 19.9509 98.3559 19.9088C98.4243 19.8646 98.4845 19.8119 98.5363 19.7509C98.5902 19.6877 98.6338 19.6182 98.6669 19.5424L99.2891 20.1773C99.2103 20.291 99.119 20.3931 99.0153 20.4837C98.9137 20.5742 98.8028 20.6511 98.6825 20.7142C98.5643 20.7774 98.4388 20.8248 98.3061 20.8564C98.1755 20.8901 98.0407 20.9069 97.9017 20.9069C97.6674 20.9069 97.4465 20.8627 97.2392 20.7742C97.0338 20.6858 96.8534 20.5626 96.6979 20.4047C96.5444 20.2468 96.4231 20.0594 96.3339 19.8425C96.2448 19.6235 96.2002 19.3834 96.2002 19.1223C96.2002 18.8549 96.2448 18.6106 96.3339 18.3895C96.4231 18.1684 96.5444 17.98 96.6979 17.8241C96.8534 17.6683 97.0338 17.5472 97.2392 17.4609C97.4465 17.3746 97.6674 17.3314 97.9017 17.3314C98.0407 17.3314 98.1765 17.3483 98.3092 17.3819C98.4419 17.4156 98.5674 17.4641 98.6856 17.5272C98.8059 17.5904 98.9179 17.6683 99.0216 17.761C99.1252 17.8515 99.2165 17.9536 99.2953 18.0674L97.7026 20.0162ZM98.1381 18.2379C98.0987 18.2232 98.0593 18.2137 98.0199 18.2095C97.9826 18.2053 97.9432 18.2032 97.9017 18.2032C97.7856 18.2032 97.6757 18.2253 97.572 18.2695C97.4704 18.3116 97.3812 18.3727 97.3045 18.4527C97.2298 18.5327 97.1707 18.6296 97.1272 18.7433C97.0836 18.8549 97.0618 18.9812 97.0618 19.1223C97.0618 19.1539 97.0629 19.1897 97.065 19.2297C97.0691 19.2697 97.0743 19.3108 97.0805 19.3529C97.0888 19.3929 97.0981 19.4319 97.1085 19.4698C97.1189 19.5077 97.1324 19.5414 97.1489 19.5708L98.1381 18.2379Z" fill="#D70070"/>
<path d="M101.268 20.8437C101.062 20.8437 100.869 20.8048 100.689 20.7269C100.509 20.6469 100.35 20.5384 100.213 20.4015C100.078 20.2626 99.9715 20.1015 99.8927 19.9183C99.8159 19.7351 99.7776 19.5392 99.7776 19.3308V18.3264H99.3639V17.4672H99.7776V16.1154H100.624V17.4672H101.911V18.3264H100.624V19.3308C100.624 19.4213 100.64 19.5066 100.673 19.5866C100.707 19.6645 100.752 19.733 100.81 19.7919C100.868 19.8509 100.937 19.8983 101.016 19.9341C101.094 19.9678 101.178 19.9846 101.268 19.9846H101.911V20.8437H101.268Z" fill="#D70070"/>
<path d="M105.489 20.8437H105.284L104.954 20.3794C104.873 20.4531 104.787 20.5226 104.696 20.5879C104.606 20.6511 104.512 20.7069 104.413 20.7553C104.313 20.8016 104.21 20.8385 104.105 20.8658C104.001 20.8932 103.895 20.9069 103.787 20.9069C103.553 20.9069 103.332 20.8669 103.125 20.7869C102.919 20.7069 102.739 20.591 102.584 20.4394C102.43 20.2857 102.309 20.0983 102.22 19.8772C102.13 19.6561 102.086 19.4045 102.086 19.1223C102.086 18.8591 102.13 18.618 102.22 18.399C102.309 18.1779 102.43 17.9884 102.584 17.8305C102.739 17.6725 102.919 17.5504 103.125 17.4641C103.332 17.3756 103.553 17.3314 103.787 17.3314C103.895 17.3314 104.002 17.3451 104.108 17.3725C104.213 17.3998 104.316 17.4377 104.416 17.4862C104.515 17.5346 104.61 17.5915 104.699 17.6567C104.79 17.722 104.875 17.7926 104.954 17.8684L105.284 17.4672H105.489V20.8437ZM104.633 19.1223C104.633 19.0044 104.611 18.8907 104.565 18.7812C104.521 18.6696 104.461 18.5717 104.385 18.4874C104.308 18.4011 104.218 18.3327 104.114 18.2821C104.012 18.2295 103.903 18.2032 103.787 18.2032C103.671 18.2032 103.561 18.2232 103.458 18.2632C103.356 18.3032 103.267 18.3622 103.19 18.4401C103.115 18.518 103.056 18.6148 103.013 18.7307C102.969 18.8444 102.947 18.9749 102.947 19.1223C102.947 19.2697 102.969 19.4013 103.013 19.5171C103.056 19.6308 103.115 19.7267 103.19 19.8046C103.267 19.8825 103.356 19.9414 103.458 19.9814C103.561 20.0215 103.671 20.0415 103.787 20.0415C103.903 20.0415 104.012 20.0162 104.114 19.9657C104.218 19.913 104.308 19.8446 104.385 19.7603C104.461 19.674 104.521 19.5761 104.565 19.4666C104.611 19.355 104.633 19.2402 104.633 19.1223Z" fill="#D70070"/>
</svg>
